<svg xmlns="http://www.w3.org/2000/svg" viewBox="0 0 1024 1024" role="img" aria-label="LocalSlock logo">
  <defs>
    <linearGradient id="tile" x1="156" y1="105" x2="868" y2="919" gradientUnits="userSpaceOnUse">
      <stop offset="0" stop-color="#ffffff"/>
      <stop offset="0.45" stop-color="#eef5ff"/>
      <stop offset="1" stop-color="#dfeaff"/>
    </linearGradient>
    <linearGradient id="hub" x1="330" y1="316" x2="694" y2="704" gradientUnits="userSpaceOnUse">
      <stop offset="0" stop-color="#20242d"/>
      <stop offset="1" stop-color="#0f1117"/>
    </linearGradient>
    <linearGradient id="blue-agent" x1="234" y1="220" x2="420" y2="408" gradientUnits="userSpaceOnUse">
      <stop offset="0" stop-color="#64d2ff"/>
      <stop offset="1" stop-color="#0a84ff"/>
    </linearGradient>
    <linearGradient id="green-agent" x1="604" y1="222" x2="790" y2="408" gradientUnits="userSpaceOnUse">
      <stop offset="0" stop-color="#5be878"/>
      <stop offset="1" stop-color="#20bf55"/>
    </linearGradient>
    <linearGradient id="pink-agent" x1="226" y1="618" x2="420" y2="810" gradientUnits="userSpaceOnUse">
      <stop offset="0" stop-color="#ff9fbd"/>
      <stop offset="1" stop-color="#ff375f"/>
    </linearGradient>
    <linearGradient id="amber-agent" x1="604" y1="618" x2="792" y2="810" gradientUnits="userSpaceOnUse">
      <stop offset="0" stop-color="#ffd166"/>
      <stop offset="1" stop-color="#ff9f0a"/>
    </linearGradient>
    <filter id="soft-shadow" x="-12%" y="-12%" width="124%" height="128%" color-interpolation-filters="sRGB">
      <feDropShadow dx="0" dy="28" stdDeviation="42" flood-color="#244069" flood-opacity="0.2"/>
      <feDropShadow dx="0" dy="6" stdDeviation="16" flood-color="#0a1324" flood-opacity="0.16"/>
    </filter>
    <filter id="agent-shadow" x="-28%" y="-28%" width="156%" height="166%" color-interpolation-filters="sRGB">
      <feDropShadow dx="0" dy="18" stdDeviation="24" flood-color="#1b2b44" flood-opacity="0.2"/>
    </filter>
  </defs>

  <rect width="1024" height="1024" rx="224" fill="#eef3fb"/>
  <rect x="64" y="64" width="896" height="896" rx="208" fill="url(#tile)"/>

  <g opacity="0.74" stroke="#111722" stroke-width="28" stroke-linecap="round">
    <path d="M332 342L512 512"/>
    <path d="M692 342L512 512"/>
    <path d="M332 682L512 512"/>
    <path d="M692 682L512 512"/>
  </g>

  <g filter="url(#agent-shadow)">
    <path d="M224 286c0-62 50-112 112-112s112 50 112 112-50 112-112 112h-26l-54 50c-14 13-37 1.5-35-17.5l5.6-53.6C205.8 355.8 224 322.2 224 286Z" fill="url(#blue-agent)"/>
    <path d="M576 286c0-62 50-112 112-112s112 50 112 112-50 112-112 112h-26l-54 50c-14 13-37 1.5-35-17.5l5.6-53.6C557.8 355.8 576 322.2 576 286Z" fill="url(#green-agent)"/>
    <path d="M224 684c0-62 50-112 112-112s112 50 112 112-50 112-112 112h-26l-54 50c-14 13-37 1.5-35-17.5l5.6-53.6C205.8 753.8 224 720.2 224 684Z" fill="url(#pink-agent)"/>
    <path d="M576 684c0-62 50-112 112-112s112 50 112 112-50 112-112 112h-26l-54 50c-14 13-37 1.5-35-17.5l5.6-53.6C557.8 753.8 576 720.2 576 684Z" fill="url(#amber-agent)"/>
  </g>

  <path d="M348 394c0-69.6 56.4-126 126-126h76c69.6 0 126 56.4 126 126v166c0 69.6-56.4 126-126 126h-50l-90 82c-17.9 16.3-46.8 1.8-44.2-22.4l6.8-59.8C371.5 681 348 628.8 348 560V394Z" fill="url(#hub)" filter="url(#soft-shadow)"/>
  <path d="M474 268h76c69.6 0 126 56.4 126 126v16c0-69.6-56.4-126-126-126h-76c-69.6 0-126 56.4-126 126v-16c0-69.6 56.4-126 126-126Z" fill="#ffffff" opacity="0.13"/>

  <circle cx="448" cy="504" r="32" fill="#ffffff"/>
  <circle cx="512" cy="504" r="32" fill="#ffffff"/>
  <circle cx="576" cy="504" r="32" fill="#ffffff"/>
</svg>
